<svg xmlns="http://www.w3.org/2000/svg" version="1.1" xmlns:xlink="http://www.w3.org/1999/xlink" xmlns:svgjs="http://svgjs.dev/svgjs" width="1500" height="795" viewBox="0 0 1500 795"><g transform="matrix(1,0,0,1,-0.9090909090909918,-1.7308040128389734)"><svg viewBox="0 0 396 210" data-background-color="#ffffff" preserveAspectRatio="xMidYMid meet" height="795" width="1500" xmlns="http://www.w3.org/2000/svg" xmlns:xlink="http://www.w3.org/1999/xlink"><g id="tight-bounds" transform="matrix(1,0,0,1,0.2400000000000091,1.567233183880262)"><svg viewBox="0 0 395.52 207.97463101840447" height="207.97463101840447" width="395.52"><g><svg viewBox="0 0 395.52 207.97463101840447" height="207.97463101840447" width="395.52"><g transform="matrix(1,0,0,1,0,124.06048987326466)"><svg viewBox="0 0 395.52 83.91414114513981" height="83.91414114513981" width="395.52"><g id="textblocktransform"><svg viewBox="0 0 395.52 83.91414114513981" height="83.91414114513981" width="395.52" id="textblock"><g><svg viewBox="0 0 395.52 83.91414114513981" height="83.91414114513981" width="395.52"><g transform="matrix(1,0,0,1,0,0)"><svg width="395.52" viewBox="2.45 -34 225.27 47.800000000000004" height="83.91414114513981" data-palette-color="#000000"><path d="M4.6 0.55L4.6 0.55Q2.65 0.55 2.65-0.85L2.65-0.85Q2.65-1.25 2.8-1.9L2.8-1.9Q3.85-7.15 4.3-12.55L4.3-12.55Q3.55-12.35 3.1-12.35L3.1-12.35Q2.6-12.35 2.6-13.25L2.6-13.25Q2.6-14.45 3.2-15.95 3.8-17.45 4.6-18.15L4.6-18.15Q4.6-20.8 4.48-22.58 4.35-24.35 4-25.7 3.65-27.05 2.9-28.3L2.9-28.3Q2.45-29 2.45-29.35L2.45-29.35Q2.45-30 3.13-30.63 3.8-31.25 4.78-31.7 5.75-32.15 6.6-32.15L6.6-32.15Q8.2-32.15 8.72-30.73 9.25-29.3 9.25-27L9.25-27Q9.2-25.9 9.05-23.85 8.9-21.8 8.6-18.8L8.6-18.8Q11.75-19 14.75-19.1 17.75-19.2 20.5-19.2L20.5-19.2 24.2-19.2 24.2-20.6Q24.2-24.95 23.05-28.25L23.05-28.25Q22.7-29.1 22.7-29.45L22.7-29.45Q22.7-30.45 23.98-31.3 25.25-32.15 26.65-32.15L26.65-32.15Q28.2-32.15 28.73-31.03 29.25-29.9 29.25-27.85L29.25-27.85Q29.25-26.5 29-24.2 28.75-21.9 28.3-18.6L28.3-18.6Q27.85-15.1 27.6-12.83 27.35-10.55 27.35-8.8L27.35-8.8Q27.35-5.5 29.05-3.9L29.05-3.9Q29.7-3.15 29.7-2.4L29.7-2.4Q29.7-1.25 28.35-0.38 27 0.5 25.1 0.5L25.1 0.5Q23.9 0.5 23.2-0.15 22.5-0.8 22.5-2.95L22.5-2.95Q22.5-3.7 22.65-5.2 22.8-6.7 23.15-9L23.15-9Q23.35-10.45 23.53-11.8 23.7-13.15 23.8-14.35L23.8-14.35Q23.45-13.9 23.13-13.65 22.8-13.4 22.25-13.45L22.25-13.45Q20.45-13.55 18.68-13.63 16.9-13.7 15.15-13.7L15.15-13.7Q11.5-13.7 8.2-13.25L8.2-13.25Q8.15-12.9 8.13-12.08 8.1-11.25 8.1-10.7L8.1-10.7Q8.1-8.55 8.3-6.25 8.5-3.95 8.7-2.15L8.7-2.15Q8.85-0.9 7.5-0.18 6.15 0.55 4.6 0.55ZM37.45 0.5L37.45 0.5Q36.85 0.5 36.22 0.3 35.6 0.1 35.2-0.65 34.8-1.4 34.8-2.95L34.8-2.95Q34.8-3.95 34.97-5.53 35.15-7.1 35.35-8.6L35.35-8.6Q35.75-11.1 36.07-14.1 36.4-17.1 36.4-20.05L36.4-20.05Q36.4-21.1 36.35-22.25 36.3-23.4 36.15-24.45L36.15-24.45Q35.85-24.3 35.47-24.18 35.1-24.05 34.85-24.05L34.85-24.05Q34.35-24.05 34.17-24.58 34-25.1 34-25.8L34-25.8Q34-27.4 34.77-28.38 35.55-29.35 37.1-30.15L37.1-30.15Q39.15-31.3 41.47-31.83 43.8-32.35 45.9-32.35L45.9-32.35Q49-32.35 51.4-31.25 53.8-30.15 55.15-28.15 56.5-26.15 56.5-23.35L56.5-23.35Q56.5-20.45 55.12-18.2 53.75-15.95 51.62-14.53 49.5-13.1 47.3-12.65L47.3-12.65Q48.1-11.4 49.02-10.15 49.95-8.9 50.9-7.9L50.9-7.9Q53.75-4.95 56.7-4.95L56.7-4.95Q57.5-4.95 58.1-5.05L58.1-5.05Q58.4-5.1 58.62-4.83 58.85-4.55 58.85-3.75L58.85-3.75Q58.85-2.8 58.45-1.83 58.05-0.85 57.1-0.2 56.15 0.45 54.5 0.45L54.5 0.45Q52.55 0.45 50.77-0.85 49-2.15 47.5-4.17 46-6.2 44.82-8.45 43.65-10.7 42.85-12.6L42.85-12.6Q42.65-13.15 42.5-13.68 42.35-14.2 42.35-14.7L42.35-14.7Q42.35-15.55 42.9-16.1L42.9-16.1Q43.3-16.5 44.02-16.65 44.75-16.8 46.15-16.8L46.15-16.8Q48.8-16.8 50.45-18.25 52.1-19.7 52.1-22L52.1-22Q52.1-24.5 50.22-25.65 48.35-26.8 45.65-26.8L45.65-26.8Q43.45-26.8 41.05-26.1L41.05-26.1Q40.9-22.85 40.35-18.65L40.35-18.65Q40.05-16.15 39.82-13.7 39.6-11.25 39.6-9.25L39.6-9.25Q39.6-7.5 39.92-6.18 40.25-4.85 41.25-3.9L41.25-3.9Q41.95-3.2 41.95-2.4L41.95-2.4Q41.95-1.3 40.7-0.4 39.45 0.5 37.45 0.5ZM79.14 0.5L79.14 0.5Q77.94 0.5 77.19-0.15 76.44-0.8 76.44-2.8L76.44-2.8Q76.44-3.8 76.64-5.4 76.84-7 77.04-8.6L77.04-8.6Q77.59-12.15 77.84-14.75 78.09-17.35 78.09-20.05L78.09-20.05Q78.09-22.55 77.82-24.7 77.54-26.85 76.44-28.4L76.44-28.4Q76.04-29.05 76.04-29.4L76.04-29.4Q76.04-30 76.72-30.68 77.39-31.35 78.37-31.8 79.34-32.25 80.19-32.25L80.19-32.25Q81.74-32.25 82.27-30.88 82.79-29.5 82.79-27.45L82.79-27.45Q82.79-26.2 82.64-24.35 82.49-22.5 82.32-20.78 82.14-19.05 81.99-18.1L81.99-18.1Q81.64-15.45 81.44-13.15 81.24-10.85 81.24-9.25L81.24-9.25Q81.24-7.35 81.62-6.05 81.99-4.75 82.94-3.9L82.94-3.9Q83.59-3.3 83.59-2.55L83.59-2.55Q83.59-1.35 82.37-0.43 81.14 0.5 79.14 0.5ZM90.79 0.55L90.79 0.55Q88.99 0.55 89.19-0.65L89.19-0.65Q89.74-2.8 90.12-5.03 90.49-7.25 90.49-9.3L90.49-9.3Q90.49-11.95 90.17-13.18 89.84-14.4 89.29-14.88 88.74-15.35 87.94-15.6L87.94-15.6Q87.59-15.75 87.31-16 87.04-16.25 87.04-16.7L87.04-16.7Q87.04-17.4 87.59-18.25 88.14-19.1 89.17-19.73 90.19-20.35 91.49-20.35L91.49-20.35Q93.19-20.35 93.84-19.18 94.49-18 94.49-16.1L94.49-16.1Q94.49-14.85 94.24-13.3 93.99-11.75 93.74-10.5L93.74-10.5 93.89-10.45Q94.89-13.1 96.31-15.38 97.74-17.65 99.64-19.05 101.54-20.45 104.04-20.45L104.04-20.45Q106.69-20.45 108.09-18.85 109.49-17.25 109.49-14.85L109.49-14.85Q109.49-13.85 109.27-12.95 109.04-12.05 108.79-11.2L108.79-11.2Q108.54-10.4 108.37-9.55 108.19-8.7 108.19-7.85L108.19-7.85Q108.19-5 110.89-4L110.89-4Q111.59-3.7 111.59-3.1L111.59-3.1Q111.59-2.65 111.29-1.8 110.99-0.95 110.19-0.23 109.39 0.5 107.84 0.5L107.84 0.5Q105.84 0.5 104.74-0.93 103.64-2.35 103.64-4.55L103.64-4.55Q103.64-5.8 103.92-7.08 104.19-8.35 104.49-9.45L104.49-9.45Q104.69-10.3 104.87-11.13 105.04-11.95 105.04-12.6L105.04-12.6Q105.04-14.9 102.64-14.9L102.64-14.9Q100.59-14.9 99.04-13.38 97.49-11.85 96.39-9.55 95.29-7.25 94.59-4.9L94.59-4.9 94.59-3.7Q94.59-1.85 93.56-0.65 92.54 0.55 90.79 0.55ZM121.39 0.65L121.39 0.65Q119.54 0.65 117.94 0.1 116.34-0.45 115.34-1.45 114.34-2.45 114.34-3.85L114.34-3.85Q114.34-4.6 114.71-5.28 115.09-5.95 115.94-5.95L115.94-5.95Q116.39-5.95 116.89-5.7L116.89-5.7Q117.79-5.2 119.19-4.78 120.59-4.35 122.14-4.35L122.14-4.35Q123.89-4.35 125.24-4.85 126.59-5.35 126.59-6.25L126.59-6.25Q126.59-6.95 125.56-7.25 124.54-7.55 122.14-7.9L122.14-7.9Q120.49-8.2 118.94-8.6 117.39-9 116.39-9.98 115.39-10.95 115.39-12.85L115.39-12.85Q115.39-14.7 116.41-16.43 117.44-18.15 119.49-19.3 121.54-20.45 124.49-20.45L124.49-20.45Q126.04-20.45 127.49-20.1 128.94-19.75 129.89-19.05 130.84-18.35 130.84-17.3L130.84-17.3Q130.84-16.4 130.21-15.65 129.59-14.9 128.76-14.43 127.94-13.95 127.39-13.95L127.39-13.95Q126.99-13.95 126.44-14.5L126.44-14.5Q125.59-15.2 124.56-15.48 123.54-15.75 122.54-15.75L122.54-15.75Q121.04-15.75 120.11-15.3 119.19-14.85 119.19-14.15L119.19-14.15Q119.19-13.5 119.96-13.1 120.74-12.7 121.89-12.53 123.04-12.35 124.09-12.2L124.09-12.2Q126.99-11.8 128.69-10.83 130.39-9.85 130.39-7.4L130.39-7.4Q130.39-5.5 129.31-3.63 128.24-1.75 126.21-0.55 124.19 0.65 121.39 0.65ZM138.88-24.85L138.88-24.85Q137.48-24.9 136.63-25.7 135.78-26.5 135.78-27.95L135.78-27.95Q135.84-29.5 136.84-30.48 137.84-31.45 139.38-31.4L139.38-31.4Q140.84-31.35 141.66-30.55 142.48-29.75 142.44-28.3L142.44-28.3Q142.38-26.8 141.44-25.83 140.48-24.85 138.88-24.85ZM138.94 0.5L138.94 0.5Q137.44 0.5 136.59-0.33 135.73-1.15 135.73-3.15L135.73-3.15Q135.73-4.3 135.96-5.4 136.19-6.5 136.48-7.55L136.48-7.55Q136.84-8.65 137.06-9.8 137.28-10.95 137.28-12.25L137.28-12.25Q137.28-13.15 137.03-13.98 136.78-14.8 135.94-15.2L135.94-15.2Q135.28-15.55 134.81-15.93 134.34-16.3 134.34-16.9L134.34-16.9Q134.34-17.6 134.98-18.4 135.63-19.2 136.71-19.78 137.78-20.35 138.94-20.35L138.94-20.35Q140.19-20.35 140.76-19.7 141.34-19.05 141.53-18.05 141.73-17.05 141.73-16L141.73-16Q141.73-14.4 141.48-12.88 141.23-11.35 140.98-10.05L140.98-10.05Q140.78-9.1 140.69-8.3 140.59-7.5 140.59-6.8L140.59-6.8Q140.59-5.55 141.19-4.93 141.78-4.3 142.88-3.75L142.88-3.75Q143.34-3.5 143.34-3L143.34-3Q143.34-2.6 142.94-1.75 142.53-0.9 141.56-0.2 140.59 0.5 138.94 0.5ZM153.58 13.8L153.58 13.8Q149.83 13.8 147.63 12.25 145.43 10.7 145.43 8.25L145.43 8.25Q145.43 6.45 146.56 5.05 147.68 3.65 149.53 3.65L149.53 3.65Q150.58 3.65 150.58 4.25L150.58 4.25Q150.58 4.6 150.46 5.05 150.33 5.5 150.33 5.95L150.33 5.95Q150.33 7.35 151.93 8.03 153.53 8.7 155.78 8.7L155.78 8.7Q157.18 8.7 158.63 8.4 160.08 8.1 161.06 7.48 162.03 6.85 162.03 5.8L162.03 5.8Q162.03 4.65 160.88 4.1 159.73 3.55 157.98 3.28 156.23 3 154.41 2.78 152.58 2.55 151.28 2.05L151.28 2.05Q149.63 1.5 148.83 0.7 148.03-0.1 148.03-1.35L148.03-1.35Q148.03-3.7 150.88-5.1L150.88-5.1Q149.23-5.95 148.41-7.5 147.58-9.05 147.58-10.95L147.58-10.95Q147.58-13.4 148.86-15.55 150.13-17.7 152.66-19.07 155.18-20.45 158.98-20.45L158.98-20.45Q160.68-20.45 162.43-20.13 164.18-19.8 165.36-18.93 166.53-18.05 166.53-16.4L166.53-16.4Q166.53-15.8 166.28-15.08 166.03-14.35 165.33-14.35L165.33-14.35Q165.03-14.35 164.53-14.48 164.03-14.6 163.63-14.7L163.63-14.7Q163.73-14.2 163.81-13.6 163.88-13 163.88-12.35L163.88-12.35Q163.88-9.4 161.88-7.03 159.88-4.65 156.03-4.2L156.03-4.2Q154.63-4.1 153.96-3.88 153.28-3.65 153.28-3.1L153.28-3.1Q153.28-2.6 153.88-2.38 154.48-2.15 155.43-2.05L155.43-2.05Q158.48-1.8 160.83-1.2 163.18-0.6 164.51 0.73 165.83 2.05 165.83 4.5L165.83 4.5Q165.83 7.35 164.16 9.43 162.48 11.5 159.68 12.65 156.88 13.8 153.58 13.8ZM155.48-8.55L155.48-8.55Q157.78-8.55 159.08-9.8 160.38-11.05 160.38-13.05L160.38-13.05Q160.38-13.6 160.28-14.18 160.18-14.75 160.08-15.15L160.08-15.15Q159.28-15.4 158.53-15.48 157.78-15.55 157.08-15.55L157.08-15.55Q154.43-15.55 152.93-14.55 151.43-13.55 151.43-11.8L151.43-11.8Q151.43-10.25 152.53-9.4 153.63-8.55 155.48-8.55ZM171.13 0.55L171.13 0.55Q170.43 0.55 169.93 0.23 169.43-0.1 169.53-0.65L169.53-0.65Q170.28-4.65 170.81-8.78 171.33-12.9 171.33-17.1L171.33-17.1Q171.33-20.8 171.08-23.8 170.83-26.8 169.48-29.55L169.48-29.55Q169.23-30.1 169.08-30.5 168.93-30.9 168.93-31.25L168.93-31.25Q168.93-32.2 170.06-33.1 171.18-34 172.43-34L172.43-34Q174.18-34 174.83-31.8 175.48-29.6 175.48-25.3L175.48-25.3Q175.48-20.15 174.88-16.32 174.28-12.5 173.83-10.5L173.83-10.5 174.03-10.4Q175.03-13.05 176.46-15.35 177.88-17.65 179.78-19.05 181.68-20.45 184.18-20.45L184.18-20.45Q186.83-20.45 188.21-18.85 189.58-17.25 189.58-14.9L189.58-14.9Q189.58-13.9 189.38-12.98 189.18-12.05 188.93-11.2L188.93-11.2Q188.68-10.4 188.48-9.58 188.28-8.75 188.28-7.9L188.28-7.9Q188.28-6.35 189.03-5.38 189.78-4.4 191.03-4L191.03-4Q191.38-3.9 191.56-3.73 191.73-3.55 191.73-3.1L191.73-3.1Q191.73-2.65 191.43-1.8 191.13-0.95 190.33-0.23 189.53 0.5 187.98 0.5L187.98 0.5Q185.98 0.5 184.88-0.93 183.78-2.35 183.78-4.6L183.78-4.6Q183.78-5.7 184-6.85 184.23-8 184.53-9.05L184.53-9.05Q184.78-10.1 184.98-11.03 185.18-11.95 185.18-12.6L185.18-12.6Q185.18-14.9 182.78-14.9L182.78-14.9Q180.78-14.9 179.25-13.48 177.73-12.05 176.66-9.88 175.58-7.7 174.88-5.4L174.88-5.4 174.88-3.7Q174.88-1.85 173.81-0.65 172.73 0.55 171.13 0.55ZM202.23 0.65L202.23 0.65Q199.18 0.65 197.85-1.38 196.53-3.4 196.53-6.6L196.53-6.6Q196.53-7.75 196.65-8.85 196.78-9.95 196.93-11.05L196.93-11.05Q197.08-12.15 197.23-13.2 197.38-14.25 197.48-15.2L197.48-15.2Q196.43-14.9 195.38-14.9L195.38-14.9Q194.28-14.9 194.28-15.8L194.28-15.8Q194.28-16.75 195.13-18.13 195.98-19.5 197.25-20.85 198.53-22.2 199.8-23.13 201.08-24.05 201.98-24.05L201.98-24.05Q203.08-24.05 203.08-22.15L203.08-22.15Q203.08-21.65 203-21.13 202.93-20.6 202.83-20.05L202.83-20.05Q203.78-20.25 204.75-20.4 205.73-20.55 206.63-20.55L206.63-20.55Q207.78-20.55 208.4-20.15 209.03-19.75 209.03-18.6L209.03-18.6Q209.03-17.4 208.45-16.2 207.88-15 207.18-15L207.18-15Q207.03-15 206.68-15.05 206.33-15.1 205.83-15.2L205.83-15.2Q205.18-15.35 204.18-15.5 203.18-15.65 201.78-15.65L201.78-15.65Q201.43-14.1 201.15-12.48 200.88-10.85 200.88-9.55L200.88-9.55Q200.88-6.65 202.33-5.6 203.78-4.55 206.53-4.55L206.53-4.55Q207.38-4.55 207.73-4.28 208.08-4 208.08-3.3L208.08-3.3Q208.08-1.65 206.38-0.5 204.68 0.65 202.23 0.65ZM218.28 0.65L218.28 0.65Q216.43 0.65 214.83 0.1 213.22-0.45 212.22-1.45 211.22-2.45 211.22-3.85L211.22-3.85Q211.22-4.6 211.6-5.28 211.97-5.95 212.83-5.95L212.83-5.95Q213.28-5.95 213.78-5.7L213.78-5.7Q214.68-5.2 216.08-4.78 217.47-4.35 219.03-4.35L219.03-4.35Q220.78-4.35 222.13-4.85 223.47-5.35 223.47-6.25L223.47-6.25Q223.47-6.95 222.45-7.25 221.43-7.55 219.03-7.9L219.03-7.9Q217.38-8.2 215.83-8.6 214.28-9 213.28-9.98 212.28-10.95 212.28-12.85L212.28-12.85Q212.28-14.7 213.3-16.43 214.33-18.15 216.38-19.3 218.43-20.45 221.38-20.45L221.38-20.45Q222.93-20.45 224.38-20.1 225.83-19.75 226.78-19.05 227.72-18.35 227.72-17.3L227.72-17.3Q227.72-16.4 227.1-15.65 226.47-14.9 225.65-14.43 224.83-13.95 224.28-13.95L224.28-13.95Q223.88-13.95 223.33-14.5L223.33-14.5Q222.47-15.2 221.45-15.48 220.43-15.75 219.43-15.75L219.43-15.75Q217.93-15.75 217-15.3 216.08-14.85 216.08-14.15L216.08-14.15Q216.08-13.5 216.85-13.1 217.63-12.7 218.78-12.53 219.93-12.35 220.97-12.2L220.97-12.2Q223.88-11.8 225.58-10.83 227.28-9.85 227.28-7.4L227.28-7.4Q227.28-5.5 226.2-3.63 225.13-1.75 223.1-0.55 221.08 0.65 218.28 0.65Z" opacity="1" transform="matrix(1,0,0,1,0,0)" fill="#000000" class="wordmark-text-0" data-fill-palette-color="primary" id="text-0"></path></svg></g></svg></g></svg></g></svg></g><g transform="matrix(1,0,0,1,75.54432,0)"><svg viewBox="0 0 244.43135999999998 104.25037508828463" height="104.25037508828463" width="244.43135999999998"><g><svg xmlns="http://www.w3.org/2000/svg" xmlns:xlink="http://www.w3.org/1999/xlink" version="1.1" x="0" y="0" viewBox="5 30.807 90.002 38.38600030166258" enable-background="new 0 0 100 100" xml:space="preserve" height="104.25037508828463" width="244.43135999999998" class="icon-icon-0" data-fill-palette-color="accent" id="icon-0"><g fill="#ffc808" data-fill-palette-color="accent"><path fill="none" d="M20.007 53.779L20.73 52.276C19.751 53.225 18.577 53.779 17.314 53.779S14.877 53.225 13.897 52.276L14.62 53.779C14.378 53.381 13.469 53.273 12.4 53.3 12.57 54.322 13.775 55.181 15.434 55.558L17.314 58.614 19.194 55.558C20.854 55.181 22.057 54.323 22.227 53.3 21.16 53.273 20.25 53.381 20.007 53.779"></path><path d="M87.418 52.012C87.385 53.534 85.128 54.763 82.349 54.763S77.314 53.534 77.281 52.012C73.029 52.401 69.698 55.975 69.698 60.327 69.698 64.939 73.437 64.928 78.05 64.928H86.65C91.262 64.928 95.002 64.94 95.002 60.327A8.354 8.354 0 0 0 87.418 52.012" fill="#ffc808" data-fill-palette-color="accent"></path><path d="M82.349 51.749C79.529 51.749 77.197 48.691 76.823 44.722H76.056C76.482 49.243 79.136 52.726 82.349 52.726S88.217 49.243 88.643 44.722H87.875C87.5 48.691 85.17 51.749 82.349 51.749" fill="#ffc808" data-fill-palette-color="accent"></path><path d="M75.756 43.781H88.942A0.93 0.93 0 1 0 88.942 41.92H88.689C88.689 39.45 87.274 37.31 85.211 36.265L84.686 39.244A0.484 0.484 0 0 1 84.123 39.638 0.487 0.487 0 0 1 83.728 39.075L84.329 35.672A1.28 1.28 0 0 0 83.248 35.073H81.449C80.993 35.073 80.595 35.313 80.369 35.672L80.969 39.075A0.484 0.484 0 0 1 80.49 39.645 0.486 0.486 0 0 1 80.011 39.244L79.486 36.265A6.34 6.34 0 0 0 76.008 41.92H75.755A0.93 0.93 0 1 0 75.756 43.781" fill="#ffc808" data-fill-palette-color="accent"></path><path d="M23.944 53.426C25.339 53.582 26.562 53.823 26.562 53.823 23.78 52.293 23.851 46.802 23.851 46.802A21 21 0 0 0 23.844 44.721H22.743L22.739 44.941A14 14 0 0 1 22.711 45.769C22.606 47.177 22.247 48.473 21.705 49.561 20.718 51.54 19.12 52.826 17.314 52.827 15.509 52.826 13.911 51.54 12.923 49.561 12.381 48.473 12.022 47.176 11.917 45.769 11.907 45.697 11.897 45.373 11.889 44.941L11.886 44.721H10.784A21 21 0 0 0 10.777 46.802S10.849 52.293 8.066 53.823C8.066 53.823 9.29 53.582 10.685 53.426A8.13 8.13 0 0 0 5 61.178C5 65.668 8.639 64.874 13.129 64.874H21.5C25.989 64.874 29.628 65.668 29.628 61.178A8.13 8.13 0 0 0 23.944 53.426M19.194 55.558L17.314 58.614 15.434 55.558C13.775 55.181 12.57 54.323 12.4 53.3 13.468 53.274 14.378 53.381 14.62 53.779L13.897 52.276C14.876 53.225 16.05 53.779 17.314 53.779S19.751 53.225 20.73 52.276L20.007 53.779C20.249 53.381 21.16 53.273 22.227 53.3 22.057 54.322 20.854 55.181 19.194 55.558" fill="#ffc808" data-fill-palette-color="accent"></path><path d="M10.721 43.781H23.908A0.93 0.93 0 0 0 23.908 41.92H23.655A6.34 6.34 0 0 0 20.178 36.265L19.992 37.317 19.652 39.243A0.485 0.485 0 0 1 19.09 39.637C19.077 39.635 19.067 39.631 19.055 39.627A0.484 0.484 0 0 1 18.696 39.073L18.702 39.039 19.069 36.956 19.296 35.671A1.28 1.28 0 0 0 18.215 35.071H16.416C15.96 35.071 15.561 35.311 15.336 35.671L15.563 36.956 15.93 39.039 15.936 39.073A0.486 0.486 0 0 1 15.577 39.627C15.565 39.63 15.555 39.635 15.542 39.637A0.487 0.487 0 0 1 14.979 39.243L14.64 37.317 14.454 36.265A6.34 6.34 0 0 0 10.977 41.92H10.723A0.93 0.93 0 0 0 10.721 43.781" fill="#ffc808" data-fill-palette-color="accent"></path><path d="M49.615 52.248C45.988 52.248 42.991 48.317 42.509 43.213H41.523C42.071 49.026 45.484 53.505 49.615 53.505 53.745 53.505 57.158 49.026 57.706 43.213H56.72C56.238 48.317 53.242 52.248 49.615 52.248" fill="#ffc808" data-fill-palette-color="accent"></path><path d="M56.727 52.438L56.67 52.431A10 10 0 0 0 56.213 52.379C56.213 52.395 56.208 52.41 56.208 52.425 56.206 52.47 56.198 52.514 56.192 52.56A2.2 2.2 0 0 1 55.969 53.299C55.17 55.31 52.586 59.12 51.064 61.283L50.751 56.789A2.64 2.64 0 0 0 51.823 55.746C51.999 55.432 52.107 55.088 52.107 54.737 52.107 54.737 50.971 55.24 49.813 55.24A3 3 0 0 1 49.615 55.235 3 3 0 0 1 49.417 55.24C48.258 55.24 47.123 54.737 47.123 54.737 47.123 55.088 47.231 55.431 47.407 55.746 47.652 56.184 48.034 56.56 48.479 56.789L48.166 61.283C46.644 59.12 44.06 55.309 43.261 53.299A2.2 2.2 0 0 1 43.038 52.56C43.033 52.514 43.024 52.47 43.022 52.425 43.022 52.41 43.017 52.395 43.017 52.379A10 10 0 0 0 42.56 52.431L42.503 52.438C37.216 53.174 33.147 57.712 33.147 63.203 33.147 69.207 38.014 69.193 44.018 69.193H55.213C61.217 69.193 66.084 69.207 66.084 63.203 66.083 57.713 62.015 53.175 56.727 52.438" fill="#ffc808" data-fill-palette-color="accent"></path><path d="M41.138 42.004H58.091A1.195 1.195 0 0 0 58.091 39.613H57.765A8.15 8.15 0 0 0 53.294 32.341L53.051 33.718 52.62 36.17A0.625 0.625 0 1 1 51.389 35.953L51.866 33.25 52.161 31.578A1.64 1.64 0 0 0 50.773 30.807H48.46C47.873 30.807 47.36 31.115 47.071 31.578L47.366 33.25 47.842 35.953A0.624 0.624 0 1 1 46.612 36.17L46.179 33.718 45.936 32.341A8.15 8.15 0 0 0 41.465 39.613H41.139A1.196 1.196 0 0 0 41.138 42.004" fill="#ffc808" data-fill-palette-color="accent"></path></g></svg></g></svg></g><g></g></svg></g><defs></defs></svg><rect width="395.52" height="207.97463101840447" fill="none" stroke="none" visibility="hidden"></rect></g></svg></g></svg>